<mxfile host="app.diagrams.net" modified="2024-06-26T02:07:59.053Z" agent="Mozilla/5.0 (Windows NT 10.0; Win64; x64) AppleWebKit/537.36 (KHTML, like Gecko) Chrome/126.0.0.0 Safari/537.36" etag="yfEvBzPiUljhoUGHWIlP" version="24.0.0" type="github">
  <diagram name="第 1 页" id="r6qpI8vEiWxrmi5SfY_g">
    <mxGraphModel dx="1050" dy="530" grid="1" gridSize="10" guides="1" tooltips="1" connect="1" arrows="1" fold="1" page="1" pageScale="1" pageWidth="827" pageHeight="1169" math="0" shadow="0">
      <root>
        <mxCell id="0" />
        <mxCell id="1" parent="0" />
        <mxCell id="5q_xdC9VetS0c1kxvcG7-3" value="" style="edgeStyle=orthogonalEdgeStyle;rounded=0;orthogonalLoop=1;jettySize=auto;html=1;" edge="1" parent="1" source="5q_xdC9VetS0c1kxvcG7-1" target="5q_xdC9VetS0c1kxvcG7-2">
          <mxGeometry relative="1" as="geometry" />
        </mxCell>
        <mxCell id="5q_xdC9VetS0c1kxvcG7-1" value="监听mq消息" style="rounded=1;whiteSpace=wrap;html=1;" vertex="1" parent="1">
          <mxGeometry x="354" y="80" width="120" height="60" as="geometry" />
        </mxCell>
        <mxCell id="5q_xdC9VetS0c1kxvcG7-5" value="" style="edgeStyle=orthogonalEdgeStyle;rounded=0;orthogonalLoop=1;jettySize=auto;html=1;" edge="1" parent="1" source="5q_xdC9VetS0c1kxvcG7-2" target="5q_xdC9VetS0c1kxvcG7-4">
          <mxGeometry relative="1" as="geometry" />
        </mxCell>
        <mxCell id="5q_xdC9VetS0c1kxvcG7-2" value="根据storeId查询店铺信息" style="rounded=1;whiteSpace=wrap;html=1;" vertex="1" parent="1">
          <mxGeometry x="354" y="220" width="120" height="60" as="geometry" />
        </mxCell>
        <mxCell id="5q_xdC9VetS0c1kxvcG7-7" value="" style="edgeStyle=orthogonalEdgeStyle;rounded=0;orthogonalLoop=1;jettySize=auto;html=1;" edge="1" parent="1" source="5q_xdC9VetS0c1kxvcG7-4" target="5q_xdC9VetS0c1kxvcG7-6">
          <mxGeometry relative="1" as="geometry" />
        </mxCell>
        <mxCell id="5q_xdC9VetS0c1kxvcG7-4" value="根据EcSpuId、storeId查询系统是否有存在的款式编码" style="whiteSpace=wrap;html=1;rounded=1;" vertex="1" parent="1">
          <mxGeometry x="354" y="360" width="120" height="60" as="geometry" />
        </mxCell>
        <mxCell id="5q_xdC9VetS0c1kxvcG7-6" value="根据skuId、storeId查询系统是否有存在的款式编码" style="whiteSpace=wrap;html=1;rounded=1;" vertex="1" parent="1">
          <mxGeometry x="354" y="500" width="120" height="60" as="geometry" />
        </mxCell>
      </root>
    </mxGraphModel>
  </diagram>
</mxfile>
